<?xml version="1.0" encoding="UTF-8" standalone="no"?>
<!-- Created with Inkscape (http://www.inkscape.org/) -->

<svg
   xmlns:dc="http://purl.org/dc/elements/1.1/"
   xmlns:cc="http://creativecommons.org/ns#"
   xmlns:rdf="http://www.w3.org/1999/02/22-rdf-syntax-ns#"
   xmlns:svg="http://www.w3.org/2000/svg"
   xmlns="http://www.w3.org/2000/svg"
   xmlns:sodipodi="http://sodipodi.sourceforge.net/DTD/sodipodi-0.dtd"
   xmlns:inkscape="http://www.inkscape.org/namespaces/inkscape"
   width="124.01575"
   height="265.74802"
   id="svg2"
   sodipodi:version="0.32"
   inkscape:version="0.47pre4 r22446"
   sodipodi:docname="coredrill-vector-small.svg"
   inkscape:output_extension="org.inkscape.output.svg.inkscape"
   version="1.1"
   style="display:inline">
  <defs
     id="defs4">
    <inkscape:perspective
       sodipodi:type="inkscape:persp3d"
       inkscape:vp_x="0 : 526.18109 : 1"
       inkscape:vp_y="0 : 1000 : 0"
       inkscape:vp_z="744.09448 : 526.18109 : 1"
       inkscape:persp3d-origin="372.04724 : 350.78739 : 1"
       id="perspective10" />
    <inkscape:perspective
       id="perspective2544"
       inkscape:persp3d-origin="372.04724 : 350.78739 : 1"
       inkscape:vp_z="744.09448 : 526.18109 : 1"
       inkscape:vp_y="0 : 1000 : 0"
       inkscape:vp_x="0 : 526.18109 : 1"
       sodipodi:type="inkscape:persp3d" />
  </defs>
  <sodipodi:namedview
     id="base"
     pagecolor="#ffffff"
     bordercolor="#666666"
     borderopacity="1.0"
     inkscape:pageopacity="0.0"
     inkscape:pageshadow="2"
     inkscape:zoom="1.979899"
     inkscape:cx="9.0781933"
     inkscape:cy="109.80794"
     inkscape:document-units="px"
     inkscape:current-layer="svg2"
     showgrid="false"
     inkscape:window-width="1280"
     inkscape:window-height="974"
     inkscape:window-x="-4"
     inkscape:window-y="-3"
     inkscape:window-maximized="1"
     units="cm" />
  <metadata
     id="metadata7">
    <rdf:RDF>
      <cc:Work
         rdf:about="">
        <dc:format>image/svg+xml</dc:format>
        <dc:type
           rdf:resource="http://purl.org/dc/dcmitype/StillImage" />
        <dc:title />
      </cc:Work>
    </rdf:RDF>
  </metadata>
  <g
     inkscape:label="Livello 1"
     inkscape:groupmode="layer"
     id="layer1"
     style="display:inline"
     transform="translate(-203.56097,-295.93259)"
     sodipodi:insensitive="true" />
  <path
     style="fill:none;stroke:#000000;stroke-width:5.31496063;stroke-linecap:butt;stroke-linejoin:miter;stroke-miterlimit:4;stroke-opacity:1;stroke-dasharray:none;display:inline"
     d="M 48.320687,49.208019 80.725065,63.962357"
     id="path3326"
     sodipodi:nodetypes="cc" />
  <path
     style="fill:none;stroke:#000000;stroke-width:5.31496063;stroke-linecap:butt;stroke-linejoin:miter;stroke-miterlimit:4;stroke-opacity:1;stroke-dasharray:none;display:inline"
     d="m 55.123308,28.248593 17.006551,7.629969"
     id="path3322"
     sodipodi:nodetypes="cc" />
  <path
     style="fill:none;stroke:#000000;stroke-width:5.31496063;stroke-linecap:round;stroke-linejoin:miter;stroke-miterlimit:4;stroke-opacity:1;stroke-dasharray:none;display:inline"
     d="M 40.26471,75.390771 91.884524,98.585485"
     id="path3330"
     sodipodi:nodetypes="cc" />
  <path
     style="fill:none;stroke:#000000;stroke-width:5.31496063;stroke-linecap:round;stroke-linejoin:miter;stroke-miterlimit:4;stroke-opacity:1;stroke-dasharray:none;display:inline"
     d="M 103.68208,137.00753 30.606271,105.80076"
     id="path3334"
     sodipodi:nodetypes="cc" />
  <path
     sodipodi:nodetypes="csc"
     style="fill:none;stroke:#000000;stroke-width:5.31496063;stroke-linecap:butt;stroke-linejoin:miter;stroke-miterlimit:4;stroke-opacity:1;stroke-dasharray:none;display:inline"
     d="m 88.426071,164.87496 c -22.075907,-8.85766 -46.18816,-18.70845 -68.264067,-27.56611 22.075907,8.85766 46.18816,18.70845 68.264067,27.56611 z"
     id="path3338" />
  <path
     style="fill:none;stroke:#000000;stroke-width:5.31496063;stroke-linecap:round;stroke-linejoin:miter;stroke-miterlimit:4;stroke-opacity:1;stroke-dasharray:none;display:inline"
     d="m 112.46365,164.34698 c -2.45184,-7.96807 -6.64801,-19.81739 -8.55508,-26.93466 M 48.807942,48.96497 c -2.291855,7.046532 -5.822482,18.202894 -8.514261,26.490144 m -0.03039,0.09244 c -2.994471,9.219857 -6.693908,20.914737 -9.727557,30.278226 m -0.08665,0.42593 c -3.295892,10.17787 -7.454792,22.70387 -10.153105,31.10518 m -0.09967,0.20634 c -4.278408,13.35501 -8.763916,26.67009 -8.7877,26.67558 M 103.88946,137.4153 91.683866,98.026248 m 0.184016,0.556987 -11.3451,-34.558338 M 80.821485,63.975589 71.77167,35.890406 M 71.653948,36.23515 62.661349,7.0133865 c 0,0 -4.983958,14.8780145 -7.080545,21.3724975 m -0.006,-0.366667 c -1.400306,4.350385 -4.267637,13.624414 -6.801688,21.41717"
     id="path2550"
     sodipodi:nodetypes="cccscsczccccccccccccs" />
  <path
     style="fill:none;stroke:#000000;stroke-width:5.31496063;stroke-linecap:butt;stroke-linejoin:miter;stroke-miterlimit:4;stroke-opacity:1;stroke-dasharray:none"
     d="M 6.6379486,164.75331 117.87,164.93717 l 0,30.15216 -108.5661614,0.18385 c -1.4995104,0 -2.757818,-0.87198 -2.757818,-2.11433 l 0.091928,-28.40554 z"
     id="path3183"
     sodipodi:nodetypes="cccccc" />
  <path
     style="fill:none;stroke:#000000;stroke-width:5.31496063;stroke-linecap:butt;stroke-linejoin:miter;stroke-miterlimit:4;stroke-opacity:1;stroke-dasharray:none"
     d="m 11.647984,195.41107 1.378913,35.94359 c 3.968691,16.72249 44.127603,31.95638 52.810689,29.60689 l 0.260011,-13.2605 c 17.223457,-2.10812 32.650808,-8.08478 45.371693,-19.89074 l 0,-26.911 -33.411247,0.2914 c -0.35349,4.11775 0.165226,6.30886 -0.933327,8.98515 -2.330193,5.6768 -8.994052,6.89569 -14.27724,7.10406 -12.514503,-0.762 -17.428378,-8.3831 -15.730589,-21.97082"
     id="path3185"
     sodipodi:nodetypes="cccccccscc" />
  <path
     style="fill:none;stroke:#000000;stroke-width:5.31496063;stroke-linecap:butt;stroke-linejoin:miter;stroke-miterlimit:4;stroke-opacity:1;stroke-dasharray:none"
     d="m 21.254391,195.64089 1.103128,34.56467 c 11.892674,9.6183 26.377266,16.09316 43.573546,19.30474 l 0.551564,-12.50212 c 14.314442,-4.1335 27.220799,-9.4107 34.380821,-15.99535 l -0.18386,-20.04016"
     id="path3231"
     sodipodi:nodetypes="cccccc" />
</svg>
