<?xml version="1.0" encoding="UTF-8" standalone="no"?>
<!-- Created with Inkscape (http://www.inkscape.org/) -->
<svg
   xmlns:dc="http://purl.org/dc/elements/1.1/"
   xmlns:cc="http://creativecommons.org/ns#"
   xmlns:rdf="http://www.w3.org/1999/02/22-rdf-syntax-ns#"
   xmlns:svg="http://www.w3.org/2000/svg"
   xmlns="http://www.w3.org/2000/svg"
   xmlns:sodipodi="http://sodipodi.sourceforge.net/DTD/sodipodi-0.dtd"
   xmlns:inkscape="http://www.inkscape.org/namespaces/inkscape"
   width="744.09448819"
   height="1052.3622047"
   id="svg2"
   sodipodi:version="0.32"
   inkscape:version="0.46"
   sodipodi:docname="gurrend-dan-contorno.svg"
   inkscape:output_extension="org.inkscape.output.svg.inkscape">
  <defs
     id="defs4">
    <inkscape:perspective
       sodipodi:type="inkscape:persp3d"
       inkscape:vp_x="0 : 526.18109 : 1"
       inkscape:vp_y="0 : 1000 : 0"
       inkscape:vp_z="744.09448 : 526.18109 : 1"
       inkscape:persp3d-origin="372.04724 : 350.78739 : 1"
       id="perspective2421" />
  </defs>
  <sodipodi:namedview
     id="base"
     pagecolor="#ffffff"
     bordercolor="#666666"
     borderopacity="1.0"
     inkscape:pageopacity="0.0"
     inkscape:pageshadow="2"
     inkscape:zoom="0.98994948"
     inkscape:cx="413.6713"
     inkscape:cy="485.72742"
     inkscape:document-units="px"
     inkscape:current-layer="layer1"
     showgrid="false"
     inkscape:window-width="1280"
     inkscape:window-height="904"
     inkscape:window-x="-4"
     inkscape:window-y="-3" />
  <metadata
     id="metadata7">
    <rdf:RDF>
      <cc:Work
         rdf:about="">
        <dc:format>image/svg+xml</dc:format>
        <dc:type
           rdf:resource="http://purl.org/dc/dcmitype/StillImage" />
      </cc:Work>
    </rdf:RDF>
  </metadata>
  <g
     inkscape:label="Livello 1"
     inkscape:groupmode="layer"
     id="layer1">
    <path
       id="path3505"
       d="M 267.89944,882.61992 C 259.75811,881.28461 253.37145,878.53362 248.73482,874.36492 C 245.47306,871.43228 245.36127,870.85241 247.51567,868.04017 C 249.90656,864.9192 250.60446,863.10478 250.60446,860.01007 C 250.60446,855.27936 247.23873,851.95802 242.44918,851.96241 C 236.00702,851.96829 232.15355,857.47322 232.06244,866.8005 L 232.02354,870.78213 L 226.47339,870.77582 C 212.69244,870.76012 201.9266,866.15091 192.4029,856.18892 C 188.90597,852.53108 181.10696,842.15809 181.10696,841.16491 C 181.10696,841.02813 182.41683,840.21811 184.01778,839.36483 C 190.9378,835.67648 196.55085,826.53989 196.55085,818.96422 C 196.55085,809.93225 187.15228,803.71797 177.46002,806.34155 C 173.69857,807.35973 169.98171,809.69572 165.42176,813.90745 C 161.12986,817.87161 159.96147,818.65906 158.37136,818.65906 C 153.01085,818.65906 132.79477,796.68679 117.29706,774.01656 C 107.98051,760.38825 102.43966,748.20003 102.43966,741.33484 C 102.43966,735.17828 104.55349,732.67062 113.53849,728.16824 C 122.99535,723.42944 125.53189,720.62338 125.97285,714.4128 C 126.25828,710.39267 125.5826,707.97194 123.16422,704.35039 C 119.35229,698.64199 112.0794,692.01637 97.130821,680.63403 C 92.485593,677.09699 86.078785,671.99004 82.893489,669.28519 C 79.70818,666.58039 72.461929,660.62913 66.790713,656.0602 C 51.504513,643.7451 49.805628,642.28053 50.599858,642.10244 C 51.436054,641.915 64.41927,646.34392 82.033717,652.82543 C 88.993202,655.38626 95.345705,657.61317 96.150389,657.77414 C 97.429773,658.03002 97.613444,657.93152 97.613444,656.98959 C 97.613444,656.39712 95.669389,652.29787 93.29333,647.88011 C 82.492599,627.79847 79.47726,619.19168 78.276005,605.01545 C 77.35373,594.13136 79.04256,580.53119 82.518307,570.85211 C 87.776074,556.21063 96.799407,542.09 111.36815,525.7048 C 117.48062,518.83024 122.88786,513.97024 137.70381,502.03449 C 161.06016,483.21851 167.5732,476.23474 173.913,463.2083 C 178.61198,453.55322 180.33938,445.10208 180.06668,433.10218 C 179.88318,425.02692 179.91301,424.99119 182.53393,430.14873 C 184.77253,434.55396 187.25851,441.7178 188.40293,447.06139 C 189.32802,451.3809 189.48359,453.56824 189.48271,462.24306 C 189.48085,480.55309 186.96043,490.22401 174.70351,518.95109 C 167.31542,536.26692 164.82407,542.86171 162.94371,550.08017 C 161.65386,555.03173 161.56143,556.00615 161.57016,564.55882 C 161.57821,572.42103 161.73259,574.33438 162.6529,577.97633 C 167.26043,596.21021 184.55172,613.6454 201.47738,617.12398 C 217.08517,620.33168 229.88046,613.745 237.14514,598.76308 C 240.21408,592.43403 241.53239,586.50382 241.53022,579.03747 C 241.52642,565.95321 237.78017,558.49116 223.07455,542.27609 C 208.77294,526.50653 204.28771,519.26852 202.08696,508.4073 C 201.04132,503.24688 201.30997,491.81197 202.58759,487.09807 C 204.786,478.98679 208.41466,472.4688 217.49729,460.31629 C 224.01764,451.59213 226.64665,447.64661 228.8198,443.32391 C 233.39293,434.22732 233.57559,423.92673 229.35086,413.376 C 228.55075,411.37779 227.9951,409.64393 228.11607,409.52294 C 228.51069,409.12829 232.63625,412.24241 234.17881,414.09929 C 236.14651,416.46791 238.3346,420.98413 239.24793,424.56205 C 241.21226,432.25721 241.37267,439.96593 239.98678,460.07126 C 238.85045,476.55645 238.77738,485.60624 239.74324,490.23511 C 241.20798,497.25498 246.46352,505.557 252.53495,510.44185 C 265.68813,521.02433 280.15116,519.60442 286.05876,507.15056 C 290.37273,498.05624 290.77523,483.85504 287.0443,472.37811 C 284.34404,464.07172 280.21188,456.88341 269.70474,442.21428 C 262.21139,431.75273 259.1984,427.03969 256.24835,421.16506 C 249.26549,407.25978 247.68555,393.77364 251.14164,377.57509 C 252.09061,373.12728 257.31413,356.77708 258.52357,354.46875 C 259.0547,353.45506 259.21631,353.8413 260.17738,358.42157 C 261.60232,365.21254 263.21002,369.95303 266.26994,376.38609 C 271.9513,388.3304 277.85369,395.86233 293.46168,411.08518 C 322.06966,438.98722 325.25583,442.38873 331.42185,451.6112 C 340.96458,465.88406 345.97618,484.43743 344.28758,499.24132 C 343.15322,509.1866 339.91309,518.74246 331.77875,536.13251 C 325.00115,550.62222 322.66613,558.01627 322.1922,566.48932 C 321.69934,575.30174 323.39258,580.27583 328.6614,585.49298 C 332.24221,589.0386 336.56197,591.5477 342.06124,593.27615 C 346.79972,594.76543 355.39183,595.13724 359.67692,594.03842 C 368.53352,591.7673 373.98863,586.75222 376.29382,578.76208 C 377.3667,575.0433 377.91699,565.04174 377.45333,557.68653 C 376.75594,546.62224 375.83751,542.25365 367.41831,509.95275 C 360.74565,484.35258 360.04643,468.58634 364.79952,450.90146 C 365.77335,447.27813 368.32256,438.93895 370.09499,433.57867 C 370.21729,433.20884 370.42225,433.01126 370.55049,433.13949 C 370.67877,433.26777 372.41934,440.41149 374.41846,449.01441 C 379.70654,471.77088 381.61111,479.01455 385.00288,489.26986 C 392.46536,511.83359 397.37878,520.00104 417.8155,543.81334 C 429.65685,557.61062 430.42645,558.54391 434.6004,564.1682 C 444.41755,577.39661 449.87358,588.97398 452.89358,602.98534 C 454.37523,609.85932 454.49305,625.95595 453.12215,634.21082 C 452.46009,638.19726 452.35894,639.81816 452.74783,640.20709 C 453.39121,640.85047 469.26444,633.92085 485.27917,626.00518 C 491.05254,623.15155 495.77619,620.99726 495.77619,621.21782 C 495.77619,621.76062 487.35551,631.5897 482.29653,636.95206 C 480.04269,639.34104 467.41523,652.15464 454.23547,665.42672 C 439.82299,679.94012 429.78649,690.42338 429.05349,691.7296 C 427.21392,695.00761 426.52237,698.59697 426.54283,704.76038 C 426.56431,711.22225 427.28544,714.14568 430.29305,719.96296 C 432.96798,725.13675 438.59167,730.86919 443.755,733.68514 C 447.15517,735.53957 447.4585,735.82658 447.26714,737.00871 C 447.15193,737.72034 446.82109,740.25719 446.53196,742.64618 C 443.28083,769.50927 429.5128,791.63081 406.92775,806.27962 C 402.13203,809.39012 392.00272,814.80258 391.00356,814.78853 C 390.62947,814.78322 389.67185,813.66215 388.87553,812.29719 C 385.24965,806.08209 379.72734,802.26325 374.3533,802.25465 C 366.60162,802.2422 359.11062,809.99316 357.77767,819.40554 C 356.48309,828.54696 361.17344,836.80771 370.12183,841.14628 C 372.20767,842.15757 373.99954,843.04453 374.10379,843.11731 C 374.49549,843.39076 371.65115,850.39982 369.82993,853.64912 C 362.80417,866.184 351.18419,873.22309 334.43432,875.09079 C 331.88131,875.37549 328.80219,875.6084 327.59187,875.6084 L 325.39129,875.6084 L 325.70341,871.14415 C 325.89925,868.34244 325.80302,865.65959 325.44497,863.94011 C 323.66395,855.38777 315.08357,852.65449 309.60494,858.89426 C 306.92166,861.95035 307.07856,866.02884 310.05199,870.51795 L 311.59736,872.85099 L 310.17888,873.98766 C 306.36453,877.0441 298.63514,880.22695 290.90335,881.92499 C 285.0744,883.20515 273.584,883.55225 267.89944,882.61992 z M 288.00763,875.27997 C 294.91731,873.71981 299.85116,870.6279 301.77596,866.65177 C 303.27067,863.56405 302.90374,861.07156 300.32655,856.80615 C 297.06611,851.40991 296.92762,848.77792 299.67109,844.34866 C 301.62798,841.18928 304.28597,839.89441 308.81431,839.89441 C 315.11759,839.89441 321.66957,843.00794 327.60301,848.8229 C 332.15418,853.28325 334.25541,857.42732 334.5087,862.44229 C 334.67462,865.72821 334.76709,865.9844 335.88952,866.2661 C 337.52962,866.67772 343.00124,866.12644 345.94138,865.25327 C 350.42179,863.92278 355.15462,860.47214 365.68605,850.85788 L 367.15756,849.51454 L 365.23876,847.96215 C 354.43074,839.21821 347.5194,828.14234 345.66416,816.59248 C 343.63372,803.95198 349.22557,795.06253 360.93319,792.31913 C 368.00013,790.66314 373.33705,791.79089 380.83072,796.52357 C 387.93331,801.00926 393.87945,801.46741 401.03865,798.08056 C 413.09338,792.37777 426.46885,772.44158 433.94388,749.03512 C 436.18369,742.02175 436.23725,742.21142 430.98425,738.55706 C 428.52892,736.84896 424.44164,733.3782 421.90142,730.84424 C 418.05999,727.01232 416.91376,725.49964 415.0897,721.85483 C 413.88348,719.44462 412.61091,716.35807 412.26178,714.99591 C 411.91265,713.63372 411.36294,712.41784 411.04016,712.294 C 410.33921,712.025 403.18975,719.28217 380.90084,742.88748 C 361.52031,763.41265 337.05221,788.28383 335.33745,789.20153 C 334.25045,789.78328 333.82594,789.655 330.4555,787.7266 C 328.4252,786.56497 323.90772,783.46934 320.41663,780.84745 C 307.82248,771.38898 292.59456,761.16412 287.36515,758.65487 C 282.28086,756.21526 280.0577,756.13119 275.92113,758.22201 C 272.37369,760.01509 268.53941,762.82172 261.00674,769.13915 C 254.68991,774.43689 241.35577,784.14679 234.46013,788.47041 C 229.35593,791.67081 225.63543,792.94923 223.96053,792.07829 C 222.28453,791.20683 217.25885,787.05111 210.50385,780.95111 C 207.16216,777.93343 199.67202,771.22943 193.85908,766.05332 C 188.04615,760.8772 178.53247,752.01535 172.71757,746.36038 C 154.69571,728.83403 145.81434,722.13476 140.60128,722.13476 C 136.94955,722.13476 130.0599,726.39992 123.5453,732.69355 C 118.28868,737.77189 116.75633,740.28885 116.78933,743.79061 C 116.86156,751.45976 124.56889,766.43598 138.41269,785.8072 C 148.11651,799.38552 151.48554,802.11716 157.95718,801.65414 C 160.2438,801.49052 162.29806,800.91278 165.21465,799.61303 C 172.03451,796.57377 178.09561,794.62079 181.74799,794.28571 C 196.58998,792.92399 210.51623,805.85289 210.54042,821.01618 C 210.54397,823.24165 210.27978,825.9564 209.95333,827.04895 C 209.17071,829.66824 206.30976,832.4393 201.95083,834.80005 C 193.56786,839.34012 191.4414,843.47035 194.41483,849.43723 C 196.23463,853.08908 200.4238,855.94992 207.22533,858.18561 C 212.2486,859.83681 222.77963,862.53124 223.1984,862.27241 C 223.40699,862.1435 223.57765,860.23951 223.57765,858.04131 C 223.57765,854.53478 223.76174,853.67624 225.07851,851.04113 C 228.2728,844.64875 235.71405,840.87755 245.15686,840.86539 C 250.45357,840.85854 253.98264,841.9703 256.2422,844.35749 C 259.16584,847.44627 259.44548,849.51822 257.84163,856.20831 C 256.4779,861.89679 256.18416,865.05854 256.83596,867.03347 C 257.49355,869.02603 260.28399,871.96731 262.68452,873.19823 C 268.87518,876.37267 279.35345,877.23406 288.00763,875.27997 z M 257.06929,813.39815 C 252.31358,810.49817 251.85913,803.48452 255.91078,795.51847 C 260.67546,786.15045 273.79326,772.87044 279.52582,771.61133 C 284.45523,770.52866 302.72889,786.98934 307.78841,797.06995 C 311.45619,804.37751 310.20055,809.96049 304.39027,812.17944 C 300.76173,813.56519 297.959,812.95433 289.64418,808.96552 C 284.87217,806.67624 281.60143,805.40434 280.12079,805.26207 C 277.95415,805.05386 277.68333,805.17977 273.22025,808.46981 C 270.66529,810.35323 267.40916,812.43686 265.9844,813.10013 C 262.78286,814.59052 259.21998,814.70958 257.06929,813.39815 z M 267.80771,807.73444 C 268.80593,807.26074 270.35278,805.71003 271.67409,803.85837 C 274.23871,800.26437 275.72053,799.3542 279.00721,799.3542 C 280.99919,799.3542 282.41202,799.87562 287.50677,802.49124 C 294.22961,805.94265 295.77847,806.23851 298.86971,804.66144 C 301.68179,803.22685 301.95254,802.36469 300.47529,799.54904 C 289.53602,778.69815 280.08851,774.43114 269.52263,785.56908 C 266.07188,789.20665 263.25545,794.0068 261.97982,798.42462 C 261.13894,801.33681 260.79047,806.95249 261.39041,807.92319 C 261.92176,808.78293 265.84108,808.66764 267.80771,807.73444 z M 232.97717,780.61063 C 234.70767,779.52559 239.32743,776.2776 243.24333,773.39288 C 247.15924,770.50815 252.64354,766.61919 255.43068,764.75072 C 258.21782,762.8823 262.88717,759.64178 265.80704,757.54957 C 272.29235,752.90261 277.3001,750.21991 280.24164,749.81672 C 284.1001,749.28781 288.59842,751.55758 299.59851,759.58377 C 305.69002,764.02842 315.21069,769.82533 327.15899,776.36471 C 330.37678,778.1258 333.21175,779.56672 333.459,779.56672 C 334.34027,779.56672 484.67591,631.43062 484.67591,630.56224 C 484.67591,630.22773 484.2564,629.95405 483.74362,629.95405 C 483.23088,629.95405 447.97785,647.40447 405.40353,668.73277 C 348.95524,697.01146 325.78353,708.86068 319.82585,712.49425 C 298.11373,725.73632 288.13154,731.09366 282.35955,732.60204 C 278.04063,733.73065 276.80595,733.37602 265.32442,727.70932 C 255.98686,723.10077 237.469,715.90513 183.27876,695.82822 C 133.1844,677.26877 77.47399,657.46346 75.362385,657.46346 C 74.859254,657.46346 74.447607,657.66762 74.447607,657.91709 C 74.447607,658.16661 82.971907,665.27007 93.390509,673.70258 C 147.93037,717.8455 186.48097,749.81262 197.51609,760.04618 C 211.26391,772.79535 219.30582,779.49277 223.81897,781.95169 C 226.55389,783.44174 229.04315,783.07725 232.97717,780.61063 z M 293.64363,716.05903 C 309.11185,708.32082 320.65519,702.91764 350.98974,689.21649 C 363.33278,683.64153 378.53536,676.68537 384.77324,673.75832 C 391.01114,670.83122 399.58973,666.97265 403.8368,665.18367 C 420.90707,657.99314 427.0935,654.77734 430.41158,651.36969 C 437.40028,644.19224 439.85788,627.44374 437.09487,605.82296 C 435.70724,594.96475 433.06271,586.35276 428.2337,576.96683 C 424.10709,568.94599 421.37179,564.97244 406.90178,545.9779 C 398.87632,535.443 394.73773,529.07988 390.67117,521.02289 C 383.98484,507.77551 378.28112,491.41846 372.69903,469.48239 C 371.44783,464.56573 370.68166,463.27244 369.89305,464.74594 C 367.41731,469.37191 366.7678,487.30507 368.75466,496.17642 C 370.10513,502.2062 372.82407,510.21241 376.02264,517.57779 C 377.33044,520.5894 379.85823,526.41967 381.63992,530.534 C 385.61547,539.71453 387.78852,546.14377 389.09218,552.58209 C 392.9586,571.67725 388.49242,590.11943 377.09676,602.11484 C 369.82308,609.77135 360.13831,613.47826 348.84295,612.92923 C 329.85376,612.00621 312.2501,598.14846 307.47518,580.3642 C 306.72172,577.55775 306.47109,575.17897 306.47109,570.83291 C 306.47109,560.5704 308.76499,554.72238 318.68165,539.70381 C 326.96706,527.15575 329.6224,521.34992 331.66886,511.30786 C 337.01581,485.06986 330.27732,463.88234 308.63777,438.89248 C 306.6571,436.6051 300.43553,429.84709 294.81208,423.87466 C 281.8105,410.06612 280.91538,409.07815 276.68945,403.87149 C 267.89364,393.03451 262.52459,383.08893 259.52753,372.08091 C 259.05733,370.3539 258.53977,369.34657 258.1828,369.46371 C 256.36242,370.061 255.62561,384.82343 257.05113,392.13794 C 258.67313,400.46065 262.53137,409.74262 268.3374,419.28974 C 269.79024,421.67872 274.44046,428.67442 278.67123,434.83572 C 293.36762,456.23818 297.84401,464.71901 301.16186,477.44563 C 302.3828,482.12881 302.48314,483.22701 302.48463,491.92428 C 302.48651,502.62299 301.86351,506.38633 299.16092,512.00216 C 296.20148,518.15164 292.27451,522.08417 286.02597,525.15582 C 279.1127,528.55424 269.39426,529.25525 260.63818,526.98707 C 253.25727,525.07518 247.86433,522.03079 242.58719,516.79711 C 238.98766,513.22721 237.82556,511.69121 236.18369,508.33341 C 231.64948,499.06047 231.63285,490.48549 236.11303,471.89549 C 237.20055,467.38298 238.4167,461.8449 238.81558,459.58865 C 239.76838,454.19921 239.76743,446.63687 238.81344,442.52334 C 237.36129,436.26181 236.32969,435.84646 234.71124,440.87156 C 233.10954,445.8447 229.89757,451.83495 223.64006,461.51913 C 217.5372,470.96399 214.47395,476.93334 212.98488,482.28295 C 209.20006,495.88038 211.58624,509.28356 220.12309,522.3779 C 223.82248,528.05228 227.98587,533.15836 236.61127,542.59955 C 254.3807,562.04958 260.28241,571.84298 262.22018,585.09543 C 262.97086,590.22941 262.52242,599.85231 261.27673,605.34034 C 254.97807,633.08973 234.72177,647.31669 207.27562,643.26784 C 185.7204,640.08803 164.93651,624.1969 154.19878,602.68592 C 149.50522,593.28325 147.80607,585.80367 147.80607,574.54538 C 147.80607,557.1168 151.11992,546.56241 165.52451,518.11312 C 176.61909,496.20118 178.96701,490.71489 181.58611,480.58268 C 183.4243,473.47145 184.08364,468.28963 184.08487,460.94447 C 184.08654,451.03244 183.35952,450.48554 180.6013,458.32393 C 178.24021,465.03378 175.19634,471.13643 171.05649,477.46031 C 164.27032,487.82663 158.07964,495.01818 140.32545,513.15963 C 115.65444,538.36879 106.72953,550.02859 99.68923,566.248 C 91.339784,585.48351 90.062161,609.33403 96.431776,627.05831 C 99.611624,635.90669 105.38065,647.11119 110.82757,655.01754 C 113.74022,659.2454 119.4324,665.42045 122.15825,667.30949 C 123.40206,668.17144 131.93695,671.26678 146.20203,676.02944 C 158.36554,680.09041 185.47402,689.54013 206.44313,697.02879 C 227.41221,704.51743 251.0848,712.87451 259.04887,715.60006 C 267.01293,718.32562 274.83206,721.00237 276.42472,721.54842 C 278.01736,722.0944 279.59347,722.5583 279.92716,722.57925 C 280.26086,722.60024 286.43327,719.66614 293.64363,716.05903 z"
       style="fill:#060708" />
  </g>
</svg>
