<?xml version="1.0" encoding="UTF-8" standalone="no"?>
<!-- Created with Inkscape (http://www.inkscape.org/) -->

<svg
   xmlns:dc="http://purl.org/dc/elements/1.1/"
   xmlns:cc="http://creativecommons.org/ns#"
   xmlns:rdf="http://www.w3.org/1999/02/22-rdf-syntax-ns#"
   xmlns:svg="http://www.w3.org/2000/svg"
   xmlns="http://www.w3.org/2000/svg"
   xmlns:sodipodi="http://sodipodi.sourceforge.net/DTD/sodipodi-0.dtd"
   xmlns:inkscape="http://www.inkscape.org/namespaces/inkscape"
   width="446.3277"
   height="679.96692"
   id="svg2838"
   version="1.1"
   inkscape:version="0.47pre4 r22446"
   sodipodi:docname="kittan.eps">
  <defs
     id="defs2840">
    <inkscape:perspective
       sodipodi:type="inkscape:persp3d"
       inkscape:vp_x="0 : 526.18109 : 1"
       inkscape:vp_y="0 : 1000 : 0"
       inkscape:vp_z="744.09448 : 526.18109 : 1"
       inkscape:persp3d-origin="372.04724 : 350.78739 : 1"
       id="perspective2846" />
    <inkscape:perspective
       id="perspective2833"
       inkscape:persp3d-origin="0.5 : 0.33333333 : 1"
       inkscape:vp_z="1 : 0.5 : 1"
       inkscape:vp_y="0 : 1000 : 0"
       inkscape:vp_x="0 : 0.5 : 1"
       sodipodi:type="inkscape:persp3d" />
    <inkscape:perspective
       id="perspective2869"
       inkscape:persp3d-origin="0.5 : 0.33333333 : 1"
       inkscape:vp_z="1 : 0.5 : 1"
       inkscape:vp_y="0 : 1000 : 0"
       inkscape:vp_x="0 : 0.5 : 1"
       sodipodi:type="inkscape:persp3d" />
  </defs>
  <sodipodi:namedview
     id="base"
     pagecolor="#ffffff"
     bordercolor="#666666"
     borderopacity="1.0"
     inkscape:pageopacity="0.0"
     inkscape:pageshadow="2"
     inkscape:zoom="0.35"
     inkscape:cx="272.87625"
     inkscape:cy="388.55487"
     inkscape:document-units="px"
     inkscape:current-layer="layer1"
     showgrid="false"
     inkscape:window-width="1280"
     inkscape:window-height="984"
     inkscape:window-x="-4"
     inkscape:window-y="-3"
     inkscape:window-maximized="1" />
  <metadata
     id="metadata2843">
    <rdf:RDF>
      <cc:Work
         rdf:about="">
        <dc:format>image/svg+xml</dc:format>
        <dc:type
           rdf:resource="http://purl.org/dc/dcmitype/StillImage" />
        <dc:title></dc:title>
      </cc:Work>
    </rdf:RDF>
  </metadata>
  <g
     inkscape:label="Layer 1"
     inkscape:groupmode="layer"
     id="layer1"
     transform="translate(-102.12375,-240.95016)">
    <g
       transform="matrix(1.6528303,0,0,1.6528303,-2336.7515,-18.932977)"
       id="g2857">
      <path
         style="fill:#e5b85e"
         d="m 1564.0933,556.88069 c -3.1222,-6.4625 -6.8265,-14.675 -8.2318,-18.25 -1.4053,-3.575 -3.1256,-7.175 -3.823,-8 -1.4546,-1.72099 -0.9519,-5.11985 2.9579,-20 l 2.4961,-9.5 -2.8358,-3 c -3.1482,-3.33041 -4.9076,-9.29839 -5.8961,-20 -0.5866,-6.35054 -1.3788,-8.29783 -8.538,-20.98817 -8.7835,-15.56981 -14.3692,-22.83846 -19.6033,-25.5099 -5.037,-2.57086 -6.5455,-4.65406 -8.8733,-12.25359 -2.2004,-7.18389 -2.0818,-8.24456 1.5412,-13.78739 1.4342,-2.19413 2.5518,-5.82016 2.9407,-9.54166 0.6009,-5.74909 0.4065,-6.46544 -4.6045,-16.96095 -10.4891,-21.96929 -13.8476,-30.2202 -12.7485,-31.3193 1.0886,-1.08859 9.8031,5.60398 24.1997,18.58482 3.8283,3.45188 7.5408,6.27614 8.25,6.27614 0.9601,0 1.2894,-2.37599 1.2894,-9.30422 0,-8.54391 -0.2365,-9.67704 -2.8934,-13.86654 l -2.8933,-4.56233 -12.8567,-3.04212 c -7.0711,-1.67316 -18.426,-4.32072 -25.233,-5.88345 -11.6195,-2.6676 -14.6965,-4.22295 -12.5064,-6.32179 0.7694,-0.73736 39.1987,-8.8991 71.7266,-15.23351 6.4514,-1.25633 11.0509,-2.6511 11.3549,-3.4433 0.5222,-1.36085 -1.937,-28.85843 -5.8257,-65.14147 -1.5452,-14.41684 -1.8655,-20.60877 -1.1057,-21.36866 0.7599,-0.75989 5.6278,2.51411 16.7993,11.29874 8.6512,6.80276 18.5773,14.49621 22.0582,17.09656 l 6.3288,4.72791 11.0684,-0.63329 11.0685,-0.63329 13.4717,-17.09462 c 7.4095,-9.40204 14.8153,-18.66962 16.4573,-20.59462 4.9114,-5.75785 36.0612,-44.87193 42.7756,-53.71236 4.2565,-5.60432 6.7085,-8.03156 7.721,-7.64302 1.8404,0.70621 1.8382,1.03131 -0.073,10.85538 -1.9766,10.16188 -5.1615,28.47488 -10.3481,59.5 -2.2526,13.475 -5.2026,30.35 -6.5556,37.5 -3.6351,19.2103 -7.3356,40.29522 -8.0988,46.1461 -0.7994,6.12852 -3.6311,4.9099 24.0589,10.35351 11.55,2.27063 23.475,4.73599 26.5,5.47857 3.025,0.74258 8.7625,1.87943 12.75,2.52633 5.8697,0.95226 7.25,1.51785 7.25,2.97074 0,1.88864 0.1464,1.82912 -19.75,8.02812 -8.5221,2.65517 -10.25,3.53093 -10.25,5.19498 0,6.05176 -12.8492,65.19087 -15.4918,71.30165 -0.7135,1.65 -1.5987,4.43141 -1.967,6.1809 -0.3684,1.7495 -1.2934,3.69841 -2.0555,4.33092 -0.7621,0.63251 -2.3226,3.08549 -3.4678,5.45107 l -2.0821,4.30105 3.2009,5.14918 c 4.2499,6.83665 2.9355,8.49134 -3.6701,4.62021 -2.5661,-1.50386 -5.0202,-2.35157 -5.4534,-1.88381 -0.7114,0.76811 -2.8912,9.00229 -4.4686,16.87956 -0.3336,1.66599 0.09,6.16599 0.9414,10 0.8513,3.834 2.451,11.47092 3.5548,16.97092 3.162,15.75562 3.2954,16.01575 10.2845,20.05462 3.396,1.96256 8.6497,5.11149 11.6747,6.99764 3.025,1.88614 7.3,4.26113 9.5,5.27775 2.2,1.01662 7.2625,3.94281 11.25,6.50264 11.6409,7.47309 9.9591,8.54749 -9.8537,6.29477 -18.155,-2.06422 -56.882,-9.3481 -60.1801,-11.31885 -0.431,-0.25757 -3.7874,-0.66121 -7.4585,-0.89699 -3.6712,-0.23577 -7.0545,-0.80836 -7.5186,-1.27241 -0.852,-0.852 1.1078,-18.47874 3.7956,-34.13917 0.8024,-4.675 1.4603,-10.1324 1.4621,-12.12756 0,-2.00105 0.6757,-4.18573 1.5032,-4.87244 1.9809,-1.64407 1.9045,-4.42242 -0.1687,-6.12756 -0.9178,-0.75484 -2.9065,-4.07244 -4.4193,-7.37244 -1.5262,-3.32944 -4.7929,-7.98786 -7.3394,-10.46617 -4.5103,-4.38967 -4.6444,-4.44266 -7.8308,-3.09307 -7.6739,3.2503 -18.7697,2.00877 -23.998,-2.68518 -0.9659,-0.86716 -2.0472,-1.2856 -2.4029,-0.92987 -0.3557,0.35574 -1.4189,4.14048 -2.3625,8.41054 -0.9437,4.27006 -2.4443,10.42437 -3.3347,13.67623 -1.1314,4.13181 -1.3073,6.28796 -0.5843,7.15921 0.5691,0.6857 1.4455,9.27508 1.9476,19.08752 0.502,9.81243 1.1976,21.56939 1.5456,26.12657 0.4448,5.82324 0.2748,8.71716 -0.5718,9.73727 -0.6625,0.79831 -0.9207,2.19127 -0.5737,3.09547 1.4259,3.71584 -24.0481,42.38148 -27.9221,42.38148 -0.7309,0 -3.8834,-5.2875 -7.0056,-11.75 z m 9.4903,-32.5 c -0.024,-2.58516 -0.2291,-2.90959 -1.0016,-1.58594 -0.5342,0.91523 -0.6974,2.37773 -0.3626,3.25 0.9407,2.45163 1.3974,1.89452 1.3642,-1.66406 z m -11.9696,-34.57186 c 0,-2.53105 -3.3935,-10.20972 -4.3599,-9.86562 -2.4295,0.86496 0.1762,10.68748 2.8351,10.68748 0.8386,0 1.5248,-0.36984 1.5248,-0.82186 z m 111.9999,-51.65246 c 0,-0.81862 -6.1588,-3.70023 -6.7165,-3.14254 -1.3767,1.3767 0.9057,3.61686 3.6851,3.61686 1.6672,0 3.0314,-0.21344 3.0314,-0.47432 z M 1556.614,416.54736 c 0,-2.82432 -0.3854,-3.95366 -1.25,-3.66275 -1.6328,0.54936 -0.8811,7.74608 0.809,7.74608 0.2425,0 0.441,-1.8375 0.441,-4.08333 z m 122.9999,1.14235 c 0,-0.51754 -0.45,-1.2191 -1,-1.55902 -0.55,-0.33992 -1,-3.04087 -1,-6.00212 0,-3.32221 -1.1455,-8.80302 -2.9911,-14.31178 -2.8897,-8.62523 -2.9409,-9.093 -1.5108,-13.8069 1.9925,-6.56785 1.9033,-7.67503 -0.9736,-12.08479 -3.2608,-4.99823 -5.6708,-7.41216 -6.969,-6.98032 -0.5805,0.19311 -1.7305,2.14254 -2.5555,4.33206 -0.825,2.18953 -2.9625,5.81712 -4.75,8.06131 -3.4895,4.38102 -4.1865,7.99594 -1.724,8.94091 0.8393,0.32208 2.6699,3.00339 4.0678,5.95846 1.398,2.95507 4.1988,7.62519 6.224,10.37803 2.0252,2.75284 5.4822,7.91358 7.6822,11.46831 3.7375,6.03914 5.5,7.83548 5.5,5.60585 z M 1647.01,401.21856 c -0.9688,-3.07333 -2.3292,-5.58787 -3.0233,-5.58787 -0.8534,0 -0.3897,1.90354 1.4327,5.88116 1.4819,3.23464 2.8424,5.74918 3.0233,5.58787 0.1808,-0.16131 -0.4639,-2.80783 -1.4327,-5.88116 z m -64.5566,-14.13492 c 1.8533,-4.06751 1.4677,-5.65328 -4.2852,-17.62264 -5.8657,-12.20405 -9.9265,-16.78287 -13.2743,-14.9676 -3.8257,2.07448 -7.2797,7.02038 -11.0685,15.84975 -3.8538,8.9808 -4.2694,11.41044 -1.5684,9.16881 0.805,-0.66806 4.274,-0.95257 8.8174,-0.72314 l 7.4903,0.37825 4.835,5.23181 c 5.4011,5.84426 7.3508,6.42241 9.0537,2.68476 z m 38.98,-0.62462 c -0.4044,-2.7481 -2.8195,-3.67178 -2.8195,-1.07833 0,2.07546 0.8081,3.25 2.2362,3.25 0.4966,0 0.7591,-0.97725 0.5833,-2.17167 z m 8.3517,0.51668 c 2.0697,-1.87306 2.4812,-6.36161 0.5788,-6.31321 -2.7951,0.0711 -4.8537,2.7071 -4.1874,5.36189 0.7673,3.057 1.1658,3.16206 3.6086,0.95132 z m -31.1712,-0.28599 c 0,-1.35726 -1.7646,-2.24903 -2.4038,-1.21481 -0.5976,0.96702 0.2684,2.15579 1.5704,2.15579 0.4584,0 0.8334,-0.42344 0.8334,-0.94098 z m 43,-1.48759 c 0,-1.84192 -2.7295,-4.57143 -4.5715,-4.57143 -2.011,0 -1.7747,1.65381 0.5715,4 2.3462,2.34619 4,2.58245 4,0.57143 z m -36.3451,-3.11456 c 0.3257,-0.84872 0.3224,-1.81284 -0.01,-2.1425 -0.8647,-0.86466 -3.7309,1.74199 -3.0777,2.79894 0.8535,1.38097 2.432,1.04509 3.0849,-0.65644 z m 7.2992,-0.54252 c -0.6139,-1.1471 -1.3603,-1.84151 -1.6587,-1.54312 -0.8243,0.82426 0.496,3.62877 1.7084,3.62877 0.7395,0 0.7243,-0.63946 -0.05,-2.08565 z m 32.3404,-19.41435 c 4.2475,-15.19563 3.9506,-16.59354 -0.7739,-3.64418 -2.4793,6.7957 -4.235,12.79741 -3.9014,13.33713 1.0543,1.70588 2.0883,-0.4379 4.6753,-9.69295 z m 50.1281,-6.85781 c 2.5176,-2.9468 4.5774,-5.61053 4.5774,-5.9194 0,-1.28218 -7.6369,1.56971 -9.25,3.4543 -1.8267,2.13402 -2.4283,7.82291 -0.8274,7.82291 0.5075,0 2.9825,-2.41102 5.5,-5.35781 z m -67.8415,-9.51084 c -0.2952,-0.47775 -2.4134,-1.16872 -4.7069,-1.53547 -3.1695,-0.50682 -5.0945,-1.67805 -8.0222,-4.88091 -4.3149,-4.72041 -5.3199,-3.18894 -1.5644,2.38384 2.3185,3.44051 4.9895,4.54933 11.5214,4.78288 1.8199,0.0651 3.0674,-0.27258 2.7721,-0.75034 z m -34.5811,-15.13135 c 0,-0.55 -1.0985,-1 -2.441,-1 -1.3426,0 -2.7191,0.45 -3.0589,1 -0.3606,0.58342 0.6561,1 2.4408,1 1.6825,0 3.0591,-0.45 3.0591,-1 z"
         id="path5119" />
      <path
         style="fill:#a78f5a"
         d="m 1565.3328,556.28503 c -3.1269,-6.46708 -6.5739,-14.00832 -7.66,-16.75832 -1.0861,-2.75 -2.6716,-6.47444 -3.5233,-8.27654 -1.6157,-3.41865 -1.5065,-4.92024 1.1429,-15.72346 4.5183,-18.42331 4.5233,-18.43375 9.8448,-20.58564 5.0464,-2.04062 5.0057,-1.79086 2.9572,-18.16648 -0.9074,-7.25452 -2.5766,-10.41453 -3.6743,-6.95609 -0.3479,1.09622 -1.9527,2.53993 -3.5661,3.20825 -1.6135,0.66832 -3.4537,1.84172 -4.0892,2.60755 -2.6334,3.17303 -4.6427,1.49674 -9.4184,-7.85759 -6.4304,-12.59559 -12.3506,-22.7928 -14.807,-25.50435 -1.2799,-1.41297 -2.1775,-4.02555 -2.4048,-7 -0.883,-11.55338 -1.2265,-10.46028 4.2195,-13.42853 2.75,-1.49886 7.2328,-3.26363 9.9618,-3.92171 l 4.9618,-1.19652 4.0923,4.65055 c 2.2508,2.55781 4.4705,4.65056 4.9328,4.65056 1.0177,0 -0.081,-13.0323 -1.1925,-14.14377 -0.8614,-0.86134 -14.1397,2.1943 -21.2185,4.88283 -2.4543,0.93213 -5.9392,2.99154 -7.7443,4.57646 -2.623,2.30305 -3.1702,3.41405 -2.725,5.53307 1.6109,7.66757 2.0057,7.27002 -3.993,4.02097 -5.021,-2.71946 -5.5635,-3.37787 -7.4941,-9.0948 -2.8006,-8.29288 -2.6352,-10.71007 1.0839,-15.8441 2.7996,-3.86482 3.1376,-5.043 2.9271,-10.20231 -0.2537,-6.21494 -0.9088,-8.14583 -7.5418,-22.22835 -8.615,-18.29079 -10.8439,-23.53996 -10.2483,-24.13559 0.6463,-0.64625 12.5528,8.89512 24.1584,19.35945 3.8283,3.45188 7.5408,6.27614 8.25,6.27614 0.9729,0 1.2894,-2.65156 1.2894,-10.80422 0,-10.16447 -0.1691,-11.07075 -2.8546,-15.30539 -2.5925,-4.08797 -3.3958,-4.62067 -8.75,-5.80282 -3.2425,-0.7159 -7.0204,-1.68531 -8.3954,-2.15424 -1.375,-0.46893 -5.875,-1.55694 -10,-2.41779 -15.9994,-3.33893 -26.4896,-6.16359 -26.2547,-7.0695 0.1349,-0.52032 1.4849,-1.23908 3,-1.59723 4.658,-1.10113 12.245,-1.64215 11.7478,-0.83773 -0.8933,1.44533 10.148,2.00687 49.7569,2.53054 34.302,0.4535 39.75,0.32676 39.75,-0.92471 0,-0.79764 -0.3735,-1.60024 -0.8299,-1.78358 -0.4564,-0.18333 -2.7577,-3.59583 -5.1139,-7.58333 -2.3563,-3.9875 -4.3454,-7.2491 -4.4202,-7.24799 -0.075,10e-4 -13.7956,2.7011 -30.4906,6 -16.6951,3.29889 -31.7701,5.96246 -33.5,5.91904 l -3.1454,-0.0789 4,-1.36349 c 2.2,-0.74992 14.575,-3.46781 27.5,-6.03975 12.925,-2.57195 23.8103,-4.96035 24.1895,-5.30757 1.0775,-0.98642 0.9868,-9.82414 -0.1939,-18.89859 -0.6951,-5.34282 -0.7355,-8.87523 -0.1139,-9.98587 0.8435,-1.50724 1.0264,-1.41288 1.4873,0.76729 0.2891,1.36723 1.0241,7.66087 1.6335,13.98587 0.6094,6.325 1.4312,11.82567 1.8264,12.22372 0.9913,0.99851 5.2426,-1.34812 10.6867,-5.89876 3.3435,-2.79483 4.4471,-4.36345 4.0983,-5.8249 -0.2626,-1.10003 -0.7531,-3.80006 -1.09,-6.00006 l -0.6126,-4 2.0941,3.5 2.094,3.5 -0.6259,-3 c -0.3443,-1.65 -3.1217,-9.63761 -6.172,-17.75024 -4.1186,-10.95384 -5.268,-15.0853 -4.4656,-16.05204 0.5942,-0.71598 0.8217,-2.29088 0.5056,-3.49976 -0.5018,-1.91885 -0.1766,-2.19796 2.5609,-2.19796 2.8454,0 3.0776,-0.23145 2.5082,-2.5 -0.8322,-3.31588 -0.054,-3.16094 5.0241,1 5.3362,4.37267 10.2608,4.80412 6.3153,0.5533 -1.5425,-1.66181 -0.4694,-1.07513 6.0153,3.28882 4.64,3.12244 5.4529,3.34553 9.4068,2.5814 2.3803,-0.46003 7.3106,-0.85602 10.9563,-0.87997 l 6.6283,-0.0435 4.3717,-5.75 c 2.4043,-3.1625 4.8607,-6.2 5.4585,-6.75 1.8432,-1.69585 12.8729,-15.74247 16.1739,-20.5979 1.7193,-2.52884 4.2764,-5.35172 5.6826,-6.27305 1.4061,-0.92143 2.5566,-2.2965 2.5566,-3.05581 0,-0.7593 1.3166,-2.88643 2.9258,-4.72694 4.4229,-5.05849 18.7331,-22.5891 23.8013,-29.15755 2.4661,-3.19614 4.7411,-5.55394 5.0555,-5.23957 0.3143,0.31438 -0.5679,1.8044 -1.9605,3.31116 -3.0861,3.33908 -23.7457,30.32781 -25.789,33.68956 -1.3229,2.17661 -1.2832,2.61621 0.405,4.48167 3.1847,3.51906 5.0833,2.55405 9.7025,-4.93166 2.3757,-3.85 4.6394,-7 5.0304,-7 2.1207,0 1.2475,2.41025 -3.2102,8.86092 l -4.9608,7.17868 0,10.59533 0,10.59533 3.6954,3.38487 c 2.0325,1.86168 3.9804,3.38487 4.3288,3.38487 0.3484,0 2.3369,-6.32277 4.4189,-14.05059 2.082,-7.72782 4.8998,-17.06532 6.2618,-20.75 1.362,-3.68468 2.8647,-9.17441 3.3393,-12.19941 0.9503,-6.05721 1.281,-7.39135 5.9016,-23.80617 1.7504,-6.2184 3.0697,-12.2934 2.9319,-13.5 -0.3658,-3.20041 1.0379,-6.69383 2.6897,-6.69383 0.7879,0 1.4319,0.1125 1.4312,0.25 -8e-4,0.1375 -0.7226,4.075 -1.604,8.75 -0.8815,4.675 -1.8285,9.85 -2.1044,11.5 -0.4888,2.923 -2.7804,15.82889 -5.682,32 -1.3465,7.50445 -2.6523,15.30143 -6.1967,37 -0.8086,4.95 -1.8633,11.025 -2.3438,13.5 -6.1774,31.81793 -9.7553,54.64574 -8.7263,55.67477 0.5934,0.59344 5.7401,1.80863 20.6586,4.8777 1.375,0.28286 3.625,0.64857 5,0.81268 1.375,0.16411 4.075,0.811 6,1.43753 1.925,0.62654 5.075,1.35085 7,1.60959 1.925,0.25874 5.975,1.15516 9,1.99205 l 5.5,1.52162 -6,-0.56414 c -3.3,-0.31028 -6.758,-0.96862 -7.6843,-1.46297 -0.9263,-0.49436 -2.9513,-0.9209 -4.5,-0.94787 -1.5487,-0.027 -9.01,-1.29524 -16.5807,-2.81837 -7.5707,-1.52313 -13.936,-2.59827 -14.1451,-2.3892 -0.5204,0.52041 4.182,8.82741 5.6919,10.05489 1.8951,1.54069 33.9642,1.71765 43.8987,0.24223 8.4163,-1.24993 15.1864,-0.87381 16.2857,0.90478 0.2949,0.47731 -5.4268,2.7362 -12.715,5.01977 -7.2882,2.28357 -13.8983,4.49451 -14.689,4.9132 -0.9415,0.49847 -2.5812,6.77823 -4.7499,18.1915 -3.7532,19.75168 -11.0056,51.61406 -12.3022,54.04788 -0.474,0.88971 -1.387,3.58971 -2.029,6 -0.6419,2.4103 -1.7335,5.05736 -2.4256,5.88236 -0.6921,0.825 -2.3084,3.41296 -3.5917,5.75103 -2.2491,4.09764 -2.2727,4.36827 -0.6547,7.5 0.9232,1.78693 2.2279,4.01489 2.8993,4.95101 1.9827,2.76423 0.279,3.08726 -4.2085,0.79794 -4.9533,-2.52699 -6.5518,-2.16157 -7.3078,1.67061 -0.307,1.55618 -1.2922,6.07742 -2.1892,10.0472 -1.5049,6.66007 -1.5059,7.81912 -0.012,15 0.8902,4.28022 2.4936,12.28221 3.5631,17.78221 1.0695,5.5 2.397,11.31047 2.95,12.91216 0.553,1.60168 0.8018,3.1157 0.5531,3.36447 -0.2488,0.24877 -2.4976,-0.53777 -4.9974,-1.74789 -2.4997,-1.21011 -4.9293,-2.04912 -5.399,-1.86447 -1.5706,0.6174 -14.1446,15.31899 -14.1525,16.54719 0,0.6663 1.6797,1.64484 3.7422,2.17453 2.0625,0.52969 6.6508,1.68534 10.1962,2.56813 7.7435,1.92804 8.6287,2.54588 3.6476,2.54588 -3.669,0 -20.1276,-3.62672 -22.0938,-4.86847 -0.55,-0.34734 -2.575,-0.72704 -4.5,-0.84378 -10.5289,-0.63849 -10.5122,-0.63314 -10.3039,-3.28775 0.6848,-8.72865 1.5845,-15.97216 3.3255,-26.77173 1.0881,-6.74945 1.9784,-13.75094 1.9784,-15.55887 0,-1.80793 0.6607,-4.16065 1.4682,-5.22827 1.8649,-2.46561 1.9427,-6.10345 0.1528,-7.14144 -1.8986,-1.10099 -5.6127,-7.41527 -5.6173,-9.54969 0,-1.51536 -11.1322,-13.75 -12.5074,-13.75 -0.277,0 -2.1828,0.9 -4.2352,2 -2.0523,1.1 -5.6134,2 -7.9134,2 -4.3175,0 -12.5969,-3.01115 -15.4985,-5.63662 -2.194,-1.98532 -2.8149,-0.8988 -4.9285,8.62447 -0.9169,4.13168 -2.4491,10.41802 -3.4049,13.96963 -1.3625,5.06287 -1.4854,6.86165 -0.5691,8.3289 0.6752,1.08118 1.5556,9.54454 2.0847,20.04252 0.5038,9.99411 1.1868,21.38607 1.5177,25.31547 0.3912,4.64528 0.2255,7.37686 -0.4737,7.80902 -0.5915,0.36555 -1.0754,2.0696 -1.0754,3.78677 0,5.42158 -20.1532,37.64629 -25.68,41.06206 -0.7605,0.47003 -3.1008,-3.30786 -6.8413,-11.0439 z m 7.87,-10.25832 c 0.8457,-6.875 1.8263,-15.2605 2.1792,-18.63445 l 0.6416,-6.13444 -3.6418,-2.77778 -3.6419,-2.77777 -5.9429,5.88092 c -3.8856,3.84506 -5.9429,6.69025 -5.9429,8.21882 0,3.06032 8.3513,23.52424 11.8565,29.05309 2.1234,3.3492 2.7075,1.68128 4.4922,-12.82839 z m 79.7196,-38.25 c 0.09,-14.76926 0.7362,-29.70245 1.4045,-32.43871 0.577,-2.36273 -1.1896,-4.29463 -1.9429,-2.12467 -0.2508,0.72236 -1.1534,6.03838 -2.0058,11.81338 -0.8524,5.775 -2.2534,15.14849 -3.1133,20.82998 -0.8599,5.68149 -1.3182,10.96899 -1.0185,11.75 0.3049,0.79456 1.8801,1.42002 3.5763,1.42002 l 3.0314,0 0.068,-11.25 z m -83.2495,-3.48024 c -0.2348,-1.23886 -1.4408,-1.86184 -4.02,-2.07671 -3.5739,-0.29775 -3.7192,-0.17776 -4.8421,4 -0.6367,2.36882 -1.5625,5.34062 -2.0572,6.604 -2.2304,5.69567 -0.7041,5.54079 5.1965,-0.52729 3.7515,-3.85806 5.9305,-6.90409 5.7228,-8 z m 92.3532,6.98024 c 5.128,-5.29896 7.0508,-8.45493 6.3529,-10.42756 -0.2573,-0.72734 -1.3816,-7.84744 -2.4985,-15.82244 -1.8383,-13.12571 -2.2801,-14.71957 -4.6619,-16.8167 -1.9363,-1.70485 -2.9261,-2.02206 -3.7478,-1.20107 -1.3619,1.36058 -2.2577,49.01777 -0.9213,49.01777 0.4838,0 2.9483,-2.1375 5.4766,-4.75 z m -81.8259,-57.06209 c -2.3634,-3.7081 -3.8187,-2.0954 -4.1425,4.59036 -0.2339,4.82779 0.1832,7.02744 1.9759,10.42063 l 2.2723,4.3011 0.6839,-8.5 c 0.537,-6.673 0.3673,-8.99696 -0.7896,-10.81209 z m 87.2844,14.02335 c -0.2681,-0.43381 -2.1452,-7.29631 -4.1714,-15.25 -5.5155,-21.65094 -15.4167,-55.15596 -17.0509,-57.69882 -0.8063,-1.25458 -2.4199,-2.21871 -3.6731,-2.19464 -1.2293,0.0236 -3.4485,-0.25483 -4.9315,-0.61875 -2.8185,-0.69167 -6.6618,1.36903 -11.75,6.30012 l -2.4463,2.3708 2.4463,4.62485 c 1.3455,2.54366 4.5839,7.4905 7.1964,10.99297 2.6125,3.50247 4.75,6.85225 4.75,7.44397 0,0.59171 -1.575,2.81918 -3.5,4.94992 -1.925,2.13074 -3.5,4.31453 -3.5,4.85286 0,1.42865 34.7845,34.95324 36.309,34.99389 0.4449,0.0119 0.5896,-0.33336 0.3215,-0.76717 z m 6.0461,-13.91426 c 0.4864,-5.75339 1.0337,-7.60677 2.4739,-8.37758 2.6777,-1.43304 2.2762,-2.58407 -1.1396,-3.26723 -5.3944,-1.07888 -5.9986,-0.2418 -5.5532,7.69401 0.2209,3.93459 0.7293,9.15133 1.1299,11.59276 0.6492,3.95611 0.8228,4.18372 1.5965,2.0924 0.4774,-1.29061 1.149,-5.67107 1.4925,-9.73436 z m -126.1766,-3.297 c -0.3755,-1.1829 -0.9076,-1.92572 -1.1826,-1.65072 -0.275,0.275 -0.1929,1.46782 0.1826,2.65072 0.3754,1.1829 0.9076,1.92572 1.1826,1.65072 0.275,-0.275 0.1928,-1.46782 -0.1826,-2.65072 z m 41.7898,-0.19866 4.2102,-2.19867 -3,-0.68302 c -1.65,-0.37566 -5.475,-0.71797 -8.5,-0.76069 l -5.5,-0.0777 3.4622,2.95936 c 1.9042,1.62765 3.8346,2.95936 4.2898,2.95936 0.4552,0 2.7222,-0.9894 5.0378,-2.19866 z m -2.2898,-8.83652 c 0,-1.73468 -0.2995,-1.87493 -2.0281,-0.94983 -2.1633,1.15781 -1.804,2.98501 0.5871,2.98501 0.7925,0 1.441,-0.91583 1.441,-2.03518 z m 89.5,-2.41652 c 0,-1.19442 -7.5419,-6.47027 -9.3134,-6.51508 -0.8816,-0.0223 -1.2103,1.0223 -1,3.17748 0.2375,2.43373 0.9183,3.38271 2.8134,3.92147 3.3004,0.93834 7.5,0.61141 7.5,-0.58387 z m -92.9863,-4.66558 c 2.3874,-1.71451 4.7676,-4.30201 5.2893,-5.75 0.5217,-1.448 2.1753,-6.33246 3.6747,-10.85435 l 2.7261,-8.22164 -3.6931,-6.60387 c -4.0199,-7.18826 -5.2585,-7.80826 -3.5892,-1.79663 1.7438,6.2802 1.3336,8.33954 -2.3325,11.7089 -3.9943,3.67094 -7.589,13.19341 -7.589,20.10332 0,2.49235 0.2639,4.53155 0.5865,4.53155 0.3226,0 2.5398,-1.40278 4.9272,-3.11728 z m 46.4022,-8.77662 c 1.6962,-2.14165 3.0841,-4.16605 3.0841,-4.49866 0,-0.33262 -1.9677,-3.19286 -4.3725,-6.3561 -6.9743,-9.17353 -9.2852,-13.96858 -7.8441,-16.27615 1.0594,-1.69632 0.8127,-2.13094 -2.0392,-3.59309 -1.7843,-0.91485 -5.1602,-2.97408 -7.502,-4.57608 l -4.2577,-2.91272 -4.9912,2.80335 c -2.7452,1.54184 -4.9918,3.41254 -4.9923,4.15712 -6e-4,0.74457 1.6454,4.48687 3.6576,8.31622 2.833,5.3912 6.039,9.20428 14.2062,16.89623 5.8012,5.46358 10.8669,9.93378 11.2573,9.93378 0.3904,0 2.0976,-1.75226 3.7938,-3.8939 z m 55.8635,-3.18443 c 0.2705,-2.34514 0.231,-2.36032 -1.25,-0.48054 -1.852,2.35051 -1.9804,3.87406 -0.2794,3.31388 0.6875,-0.22642 1.3757,-1.50142 1.5294,-2.83334 z m -5.1152,-3.48913 c 0.3308,-0.8621 0.029,-2.6375 -0.6711,-3.94532 -0.7753,-1.44873 -1.0323,-3.85819 -0.6578,-6.16638 0.4565,-2.8131 -0.055,-5.4632 -1.9874,-10.29298 -3.5102,-8.77411 -3.9112,-12.81585 -1.8789,-18.93477 l 1.7029,-5.12697 -3.4863,-5.23306 c -1.9175,-2.87818 -4.5887,-6.26055 -5.9359,-7.51637 -2.9391,-2.7396 -3.7155,-2.06938 -6.1207,5.28331 -0.8996,2.75 -2.9265,6.37641 -4.5042,8.05869 -4.5372,4.83781 -4.7957,7.03307 -1.1999,10.18832 1.6913,1.4841 3.0751,3.24195 3.0751,3.90633 0,1.34587 2.7392,5.9338 8,13.39889 1.925,2.73163 5.2932,7.88736 7.4849,11.45718 4.1406,6.74423 5.1668,7.56177 6.1793,4.92313 z m 11.5678,-13.93254 c 3.4139,-19.71061 3.4031,-18.29814 0.1504,-19.62155 -1.5854,-0.64501 -5.2449,-1.20295 -8.1324,-1.23988 -2.8875,-0.0369 -5.2496,-0.30821 -5.249,-0.60286 5e-4,-0.29464 2.2957,-1.82453 5.1002,-3.39975 4.3933,-2.46755 4.9036,-3.05966 3.6861,-4.27716 -1.2175,-1.21749 -1.9185,-1.20193 -5.0642,0.11239 -3.9854,1.66521 -6.136,4.63331 -5.3014,7.31658 0.2929,0.94173 0.1589,2.30698 -0.2979,3.03389 -0.4852,0.77214 -0.027,4.0984 1.1018,8 1.0628,3.67309 2.4014,9.52555 2.9747,13.00547 1.0894,6.61202 2.7004,8.3508 7.2997,7.87833 1.7206,-0.17676 2.2419,-1.60212 3.732,-10.20546 z m -165.9669,-7.40777 c 2.8792,-1.59927 9.7349,-4.14277 15.2349,-5.65222 11.5907,-3.18102 12.4406,-3.70423 10.6566,-6.56076 -1.0791,-1.72794 -1.0428,-2.34751 0.2189,-3.74173 1.1921,-1.3172 3.0259,-1.61733 8.6632,-1.41786 l 7.151,0.25303 5.4262,5.51366 c 2.9845,3.03251 6.0707,5.51365 6.8584,5.51365 1.2895,0 5.5257,-7.83702 5.5257,-10.22275 0,-0.53268 -0.8924,-2.22169 -1.983,-3.75335 -1.0907,-1.53167 -3.5145,-6.41624 -5.3864,-10.8546 -3.2392,-7.68036 -6.9734,-12.38515 -10.8826,-13.7111 -1.1572,-0.39249 -3.2583,0.70207 -6.1884,3.22378 -3.5539,3.05857 -5.0591,5.4558 -7.5672,12.05179 -1.722,4.52858 -3.5497,8.49263 -4.0617,8.80902 -0.5119,0.31638 -0.9313,1.56119 -0.9319,2.76623 0,1.99827 -0.5097,2.19374 -5.7833,2.22235 -9.1265,0.0495 -14.7658,2.72051 -18.652,8.83435 -6.9352,10.91053 -6.7991,11.44836 1.7016,6.72651 z m 97.7982,-9.90125 c 0.059,-2.51707 0.1194,-2.55218 0.93,-0.54331 0.4766,1.18122 1.2553,2.38799 1.7306,2.6817 1.2886,0.79638 7.2761,-3.30041 7.2761,-4.97846 0,-1.05134 0.9239,-0.74793 3.3443,1.0982 3.4313,2.61711 6.6557,3.3529 6.6557,1.51877 0,-0.56766 -0.6533,-2.59553 -1.4517,-4.50636 -1.5569,-3.72619 -6.0733,-6.33659 -7.8644,-4.54548 -0.6503,0.65029 -1.621,0.65284 -2.827,0.007 -2.2347,-1.19599 -6.4511,1.22235 -7.4125,4.2515 -0.6286,1.98061 -0.6507,1.97991 -2.8534,-0.0895 -3.4988,-3.28689 -4.9539,-2.7173 -4.2523,1.66449 0.5973,3.73069 4.0564,7.74185 5.7654,6.68562 0.4927,-0.30451 0.9244,-1.7646 0.9592,-3.24464 z m -24.5633,-1.77431 c 0,-2.2433 -0.4586,-2.91667 -1.9863,-2.91667 -2.3573,0 -3.2015,2.96635 -1.4462,5.08134 1.8138,2.18559 3.4325,1.16483 3.4325,-2.16467 z m 7.0952,-2.92168 c 1.3227,-2.01867 1.4005,-2.79524 0.4006,-4 -2.6657,-3.21199 -6.6773,-0.34636 -5.5885,3.99202 0.8061,3.21141 3.0866,3.21492 5.1879,0.008 z m 8.4048,0.33375 c 0,-2.48898 -2.6673,-5.82874 -4.655,-5.82874 -1.8799,0 -1.6804,3.97189 0.3099,6.17126 2.2383,2.47318 4.3451,2.3071 4.3451,-0.34252 z m -18.0147,-9.31395 6.4276,-6.48521 -2.2065,-4.54154 c -1.2135,-2.49785 -2.2064,-4.96635 -2.2064,-5.48556 0,-0.5192 1.4248,-2.96542 3.1662,-5.43604 l 3.1663,-4.49204 -3.7522,-5.65126 c -2.1831,-3.28794 -4.1232,-5.28028 -4.6393,-4.76417 -1.8538,1.85375 -13.941,26.40455 -13.941,28.31599 0,3.09968 5.0679,15.02504 6.3852,15.02504 0.6449,0 4.0649,-2.91834 7.6001,-6.48521 z m 29.7184,-3.01479 c 2.5212,-1.925 5.1323,-3.5 5.8026,-3.5 0.6702,0 2.9174,1.35 4.9937,3 2.0762,1.65 4.3215,3 4.9894,3 1.2235,0 9.1078,-28.22422 12.0118,-43 2.3099,-11.75269 6.0026,-25.16983 7.9702,-28.95907 0.9879,-1.90249 2.1703,-6.79505 2.6275,-10.87235 0.4573,-4.07731 1.5221,-8.4674 2.3662,-9.75575 0.8442,-1.28836 1.5349,-3.68051 1.5349,-5.3159 0,-1.63539 1.1985,-6.68925 2.6634,-11.23081 2.5273,-7.83543 2.5715,-8.31126 0.866,-9.31175 -0.9886,-0.5799 -3.0937,-2.11246 -4.6782,-3.40569 -1.5844,-1.29323 -3.4366,-2.13676 -4.116,-1.87451 -1.2017,0.46387 -45.7353,79.71209 -45.7352,81.38652 0,0.91969 3.0987,3.49236 15.0843,12.52379 4.3536,3.28055 7.9157,6.56858 7.9157,7.30674 0,1.83079 -2.1046,2.44246 -4.375,1.27157 -1.2792,-0.65965 -2.6162,-0.57028 -4.2072,0.28119 -1.8321,0.98049 -4.4818,1.0037 -12.3565,0.10827 -5.5133,-0.62693 -10.5227,-1.25516 -11.132,-1.39606 -0.6093,-0.14091 -2.023,0.93774 -3.1416,2.39699 -1.8553,2.42049 -1.9272,3.09696 -0.8198,7.71309 1.0727,4.47161 1.8137,5.4545 6.3729,8.45374 8.6798,5.70986 9.3618,5.76224 15.3629,1.17999 z m -78.9097,-2.75 c 1.0658,-2.8875 2.2332,-6.88239 2.5942,-8.87753 0.5789,-3.19914 0.3881,-3.69942 -1.6159,-4.23634 -4.5328,-1.21446 -10.5314,-0.70641 -11.1653,0.94566 -0.3339,0.86998 -0.607,5.14498 -0.607,9.5 l 0,7.91821 4.4281,0 4.4282,0 1.9377,-5.25 z m 133.1368,0.78576 c 2.6313,-1.36068 2.799,-1.80274 2.3715,-6.25 -0.7183,-7.47183 -0.718,-7.47158 -5.7448,-4.66202 -2.4963,1.39518 -4.7849,2.93517 -5.0859,3.42218 -0.7227,1.16925 3.2752,8.95408 4.5983,8.95408 0.5662,0 2.3036,-0.65891 3.8609,-1.46424 z m 12.289,-10.28576 c 5.5124,-5.63848 10.1022,-11.26133 9.6012,-11.76232 -0.2448,-0.24483 -3.0315,0.2906 -6.1925,1.18983 -4.8937,1.39215 -6.0214,2.17215 -7.5926,5.25202 -1.705,3.34219 -1.7951,9.07047 -0.1425,9.07047 0.3631,0 2.31,-1.6875 4.3264,-3.75 z m -17.4698,-3.02158 c 5.5966,-2.9167 7.9342,-5.22842 5.287,-5.22842 -1.7973,0 -11.5297,4.12537 -12.9054,5.47033 -1.2903,1.26155 -0.7073,3.99255 0.71,3.32527 0.3621,-0.17048 3.4709,-1.77571 6.9084,-3.56718 z m -125,-4.7789 c 0.6875,-0.21271 1.25,-1.23819 1.25,-2.27884 0,-1.53579 -0.9887,-2.01085 -5.25,-2.5227 -6.5015,-0.78092 -13.75,-0.83275 -13.75,-0.0983 0,0.30231 0.6921,1.88809 1.538,3.52395 1.5297,2.95807 1.5747,2.97098 8.25,2.36847 3.6916,-0.33319 7.2745,-0.77985 7.962,-0.99256 z m 80.25,-4.32708 c 0,-1.61867 -2.7896,-3.2143 -6.6608,-3.80994 -5.2796,-0.81233 -7.0679,-1.88714 -8.8392,-5.3125 -1.7074,-3.30169 -5.2618,-5.63821 -6.5768,-4.32326 -0.9794,0.9794 3.0097,10.21624 5.1676,11.96565 0.775,0.62832 2.3092,1.36362 3.4092,1.634 3.5294,0.86756 13.5,0.75386 13.5,-0.15395 z m -36,-15.15762 c 0,-0.56935 -0.6365,-2.03185 -1.4143,-3.25 -0.7779,-1.21815 -2.6348,-5.81482 -4.1265,-10.21482 -2.8106,-8.29039 -5.1355,-13.5 -6.0248,-13.5 -0.8938,0 -8.4344,4.01966 -8.4344,4.49615 0,0.25053 0.8983,1.92889 1.9962,3.72968 1.098,1.80079 1.998,3.79739 2,4.43689 0,0.63949 1.5295,3.47938 3.3942,6.31087 2.067,3.13859 3.1925,5.90509 2.8834,7.08728 -0.453,1.73225 0.039,1.93913 4.6095,1.93913 2.8604,0 5.1167,-0.45648 5.1167,-1.03518 z m 20.4892,-6.21482 c 1.0563,-1.7875 11.9872,-21.025 24.2909,-42.75 l 22.3704,-39.5 -0.6154,-8 c -0.5686,-7.39315 -0.8559,-8.20861 -3.7874,-10.75 -3.9771,-3.44779 -5.4117,-3.44997 -8.1038,-0.0124 -1.1792,1.5057 -3.9439,4.82298 -6.1439,7.37174 -2.2,2.54875 -7.375,9.01157 -11.5,14.36181 -4.125,5.35024 -14.7,18.81063 -23.5,29.91196 -23.219,29.29106 -21.7912,26.66294 -18.6658,34.35776 1.3882,3.41772 3.5611,5.5836 11.1942,11.15824 5.2093,3.80454 10.162,6.95863 11.0059,7.0091 0.844,0.0505 2.3987,-1.37074 3.4549,-3.15824 z m 115.3131,208.71899 c -0.2921,-0.29206 -3.8546,-0.77203 -7.9167,-1.0666 -18.6787,-1.35453 -23.6865,-2.11368 -35.3856,-5.36415 l -3,-0.83352 3,-0.0801 c 1.65,-0.044 8.175,0.83998 14.5,1.96446 12.4071,2.20577 24,3.46816 24,2.61343 0,-0.29173 -3.0375,-2.24105 -6.75,-4.33181 -4.392,-2.47343 -6.1461,-3.92503 -5.0211,-4.15533 0.9509,-0.19467 3.4259,0.70323 5.5,1.99532 11.1249,6.93046 13.2106,8.35446 13.2394,9.03926 0.036,0.86259 -1.3793,1.00572 -2.166,0.21899 z m -23.8023,-14.46899 c -0.9013,-0.58246 -1.0247,-0.97549 -0.3091,-0.98469 0.6551,-0.008 1.4691,0.43469 1.8091,0.98469 0.7673,1.24153 0.4211,1.24153 -1.5,0 z m -152.2709,-23.60417 c -0.401,-0.40104 -0.7291,-1.41916 -0.7291,-2.2625 0,-1.12559 0.2958,-1.2375 1.1125,-0.42083 0.6118,0.61187 0.94,1.63 0.7291,2.2625 -0.2108,0.6325 -0.7114,0.82187 -1.1125,0.42083 z m -59.4583,-169 c 0.3323,-0.33229 1.1948,-0.36781 1.9167,-0.0789 0.7977,0.31922 0.5607,0.55618 -0.6042,0.60416 -1.0542,0.0434 -1.6448,-0.19293 -1.3125,-0.52522 z m 6,-1 c 0.3323,-0.33229 1.1948,-0.36781 1.9167,-0.0789 0.7977,0.31922 0.5607,0.55618 -0.6042,0.60416 -1.0542,0.0434 -1.6448,-0.19293 -1.3125,-0.52522 z m 57.3078,-46.14789 c -0.3627,-1.14282 -0.3306,-3.35362 0.071,-4.9129 l 0.7306,-2.83504 0.7306,3.48031 c 0.8539,4.06817 -0.4464,7.68941 -1.5324,4.26763 z m -0.5436,-11.99794 c -0.1568,-0.6875 -0.3667,-1.5875 -0.4665,-2 -1.4621,-6.04313 -1.5739,-7.41804 -0.7263,-8.93253 0.8288,-1.48101 1.0892,-1.19992 1.648,1.77898 0.6141,3.27338 0.1826,11.95048 -0.4552,9.15355 z m -2.535,-16.25 c -0.3492,-1.1 -0.3129,-3.0125 0.081,-4.25 0.6925,-2.17839 0.7402,-2.18634 1.4971,-0.25 1.1025,2.82063 1.0967,6.5 -0.01,6.5 -0.513,0 -1.2183,-0.9 -1.5674,-2 z m 15.3976,-10.96508 c -9.8905,-7.42337 -13.5999,-9.69696 -14.5435,-8.91391 -0.6966,0.57814 -1.7362,0.76087 -2.3103,0.40606 -1.3404,-0.82841 -1.3583,-5.21467 -0.025,-6.03891 0.7978,-0.49312 12.6371,7.8372 14.9808,10.54079 0.275,0.31723 2.2788,1.90299 4.4528,3.52391 4.8975,3.65149 12.2797,10.41783 11.3845,10.43467 -0.3645,0.007 -6.6374,-4.47182 -13.9396,-9.95261 z m -15.8187,0.54841 c -0.043,-1.05416 0.1929,-1.64479 0.5252,-1.3125 0.3323,0.33229 0.3678,1.19479 0.079,1.91667 -0.3192,0.79773 -0.5562,0.56078 -0.6041,-0.60417 z m 133.9433,-68.19847 c 0.029,-1.16619 3.9267,-6.13467 3.9555,-5.04259 0.012,0.46325 -0.8777,1.98644 -1.9777,3.38486 -1.1,1.39842 -1.99,2.1444 -1.9778,1.65773 z"
         id="path5115" />
    </g>
  </g>
</svg>
